# xmcd
#
# Track frame offsets: 
#        183
#        13293
#        24908
#        35645
#        52058
#        65368
#        74658
#        88140
#        102263
#        116343
#        127013
#        148958
#        162833
#        175555
#        189283
#        201578
#        215493
#        227413
#
# Disc length: 3197 seconds
#
# Revision: 3
# Processed by: cddbd v1.5.2PL0 Copyright (c) Steve Scherf et al.
# Submitted via: ExactAudioCopyFreeDBPlugin 1.0
#
DISCID=090c7b12
DTITLE=Various Artist - Black and Blues Disc 2
DYEAR=1900
DGENRE=Blues
TTITLE0=Muddy Waters - Mannish Boy
TTITLE1=Little Walter - My Babe
TTITLE2=J B Lenoir - I Don't Know
TTITLE3=Howlin' Wolf - Rockin' Daddy
TTITLE4=John Lee Hooker - One Bourbon, One Scotch One Beer
TTITLE5=Buddy Guy - American Bandstand
TTITLE6=Koko Taylor - Wang Dang Doodle
TTITLE7=Little Milton - If Walls Could Talk
TTITLE8=Sonny Boy Williamson - Help Me
TTITLE9=Lowell Fulson - Comin' Home Someday
TTITLE10=Lightinin' Hopkins - Shake it Baby
TTITLE11=Chuck Berry - We We Hours
TTITLE12=Muddy Waters - All Aboard
TTITLE13=Albert King - Searchin' for a Woman
TTITLE14=Otis Spann - I'm in Love With you Baby
TTITLE15=Howlin' Wolf - Smokestack Lightnin'
TTITLE16=Little Walter - It's too Late Brother
TTITLE17=Bo Diddly - I'm a Man
EXTD=
EXTT0=
EXTT1=
EXTT2=
EXTT3=
EXTT4=
EXTT5=
EXTT6=
EXTT7=
EXTT8=
EXTT9=
EXTT10=
EXTT11=
EXTT12=
EXTT13=
EXTT14=
EXTT15=
EXTT16=
EXTT17=
PLAYORDER=
